<svg width="18" height="18" viewBox="0 0 18 18" fill="none" xmlns="http://www.w3.org/2000/svg">
<path d="M9.00001 4.28906C12.0969 4.28906 14.6074 6.79957 14.6074 9.89648V13.9922C14.6074 14.1414 14.5482 14.2844 14.4427 14.3899C14.3372 14.4954 14.1941 14.5547 14.0449 14.5547H3.95509C3.80591 14.5547 3.66283 14.4954 3.55734 14.3899C3.45185 14.2844 3.39259 14.1414 3.39259 13.9922V9.89648C3.39259 6.79957 5.9031 4.28906 9.00001 4.28906ZM8.50782 1.19531H9.4922C9.5295 1.19531 9.56526 1.21013 9.59164 1.2365C9.61801 1.26287 9.63282 1.29864 9.63282 1.33594V3.02344C9.63282 3.06073 9.61801 3.0965 9.59164 3.12287C9.56526 3.14925 9.5295 3.16406 9.4922 3.16406H8.50782C8.47053 3.16406 8.43476 3.14925 8.40839 3.12287C8.38202 3.0965 8.3672 3.06073 8.3672 3.02344V1.33594C8.3672 1.29864 8.38202 1.26287 8.40839 1.2365C8.43476 1.21013 8.47053 1.19531 8.50782 1.19531ZM3.11574 3.36902C3.1288 3.35595 3.14431 3.34558 3.16138 3.3385C3.17845 3.33142 3.19675 3.32778 3.21523 3.32778C3.23371 3.32778 3.25201 3.33142 3.26908 3.3385C3.28615 3.34558 3.30166 3.35595 3.31472 3.36902L4.50792 4.56223C4.53428 4.5886 4.54908 4.62435 4.54908 4.66163C4.54908 4.69891 4.53428 4.73467 4.50792 4.76104L3.81183 5.45713C3.78546 5.48348 3.74971 5.49828 3.71243 5.49828C3.67515 5.49828 3.63939 5.48348 3.61302 5.45713L2.41982 4.26393C2.39347 4.23756 2.37866 4.2018 2.37866 4.16452C2.37866 4.12724 2.39347 4.09149 2.41982 4.06512L3.11591 3.36902H3.11574ZM14.886 3.36902L15.5821 4.06512C15.6084 4.09148 15.6232 4.1272 15.6232 4.16443C15.6232 4.20167 15.6084 4.23739 15.5821 4.26375L14.3889 5.4573C14.3759 5.47038 14.3604 5.48075 14.3433 5.48783C14.3262 5.49491 14.3079 5.49855 14.2894 5.49855C14.271 5.49855 14.2527 5.49491 14.2356 5.48783C14.2185 5.48075 14.203 5.47038 14.19 5.4573L13.4939 4.76121C13.4808 4.74815 13.4704 4.73264 13.4633 4.71557C13.4563 4.6985 13.4526 4.6802 13.4526 4.66172C13.4526 4.64324 13.4563 4.62494 13.4633 4.60787C13.4704 4.5908 13.4808 4.57529 13.4939 4.56223L14.6872 3.36902C14.7136 3.34267 14.7494 3.32787 14.7866 3.32787C14.8239 3.32787 14.8597 3.34267 14.886 3.36902ZM3.37501 15.6797H14.625C14.7742 15.6797 14.9173 15.739 15.0228 15.8444C15.1283 15.9499 15.1875 16.093 15.1875 16.2422V16.6641C15.1875 16.7014 15.1727 16.7371 15.1463 16.7635C15.12 16.7899 15.0842 16.8047 15.0469 16.8047H2.95314C2.91584 16.8047 2.88007 16.7899 2.8537 16.7635C2.82733 16.7371 2.81251 16.7014 2.81251 16.6641V16.2422C2.81251 16.093 2.87178 15.9499 2.97727 15.8444C3.08275 15.739 3.22583 15.6797 3.37501 15.6797ZM5.97658 10.1074V14.5547H7.10157V10.1074H5.97658Z" fill="#A6ABC8"/>
</svg>
