<svg width="18" height="18" viewBox="0 0 18 18" fill="none" xmlns="http://www.w3.org/2000/svg">
<path d="M11.8496 11.6252C12.5398 11.2416 12.4504 9.76331 11.6505 8.32106C11.3074 7.70006 10.8855 7.19718 10.4636 6.84562C9.95915 7.21997 9.34808 7.423 8.71988 7.425C8.09072 7.4236 7.47857 7.22054 6.97332 6.84562C6.55145 7.19718 6.13069 7.70062 5.78644 8.32106C4.98601 9.76275 4.89769 11.2416 5.58957 11.6252C5.89782 11.8007 6.22294 11.6691 6.5582 11.3462C6.4954 11.694 6.46396 12.0468 6.46426 12.4003C6.46426 14.0529 7.10551 15.3883 7.89469 15.3883C8.37057 15.3883 8.60626 14.9017 8.71932 14.1576C8.83182 14.8967 9.06807 15.3883 9.54057 15.3883C10.3264 15.3883 10.9727 14.0524 10.9727 12.4003C10.9727 12.0291 10.9378 11.6747 10.8782 11.3467C11.2157 11.6702 11.5397 11.8041 11.8491 11.6263L11.8496 11.6252ZM8.71876 6.8625C9.0379 6.86726 9.3548 6.80851 9.65103 6.68964C9.94725 6.57078 10.2169 6.39419 10.4442 6.17015C10.6715 5.94611 10.852 5.67909 10.9752 5.38463C11.0984 5.09018 11.1617 4.77416 11.1616 4.45498C11.1615 4.1358 11.0979 3.81983 10.9746 3.52546C10.8512 3.23109 10.6705 2.9642 10.443 2.74032C10.2155 2.51643 9.94577 2.34003 9.64946 2.22138C9.35316 2.10273 9.03621 2.04419 8.71707 2.04918C8.08516 2.05906 7.48249 2.31708 7.03919 2.76752C6.59589 3.21796 6.34754 3.82468 6.34776 4.45667C6.34798 5.08866 6.59676 5.6952 7.04037 6.14533C7.48399 6.59546 8.08684 6.85306 8.71876 6.8625ZM13.5529 8.38912C14.0669 8.3741 14.5548 8.15935 14.9131 7.79046C15.2714 7.42156 15.4718 6.92757 15.4718 6.41334C15.4718 5.89911 15.2714 5.40511 14.9131 5.03622C14.5548 4.66733 14.0669 4.45258 13.5529 4.43756C13.0287 4.43763 12.5261 4.64593 12.1555 5.01661C11.7849 5.3873 11.5767 5.89002 11.5768 6.41418C11.5769 6.93834 11.7852 7.441 12.1559 7.81159C12.5266 8.18217 13.0293 8.39032 13.5534 8.39025L13.5529 8.38912ZM15.9604 9.58725C15.678 9.0765 15.3326 8.66362 14.9861 8.37506C14.5717 8.68216 14.0699 8.8487 13.554 8.85037C13.1288 8.85037 12.7328 8.73393 12.3863 8.541C12.6653 9.15581 12.8379 9.7785 12.87 10.3354C12.9229 11.1881 12.6563 11.8204 12.123 12.1157C12.0088 12.1787 11.8845 12.2213 11.7557 12.2417C11.7236 12.4622 11.7017 12.6917 11.7017 12.9336C11.7017 14.2909 12.2276 15.3872 12.8762 15.3872C13.2666 15.3872 13.4612 14.9878 13.5534 14.3769C13.6451 14.9844 13.8392 15.3872 14.2284 15.3872C14.8725 15.3872 15.4041 14.2903 15.4041 12.9347C15.4041 12.6292 15.3743 12.3384 15.3253 12.0684C15.6021 12.3345 15.8687 12.4442 16.1229 12.2979C16.6894 11.9829 16.6163 10.7691 15.9598 9.58668L15.9604 9.58725ZM3.88463 8.38912C4.2753 8.3889 4.65713 8.27285 4.98185 8.05564C5.30658 7.83844 5.55961 7.52983 5.70895 7.16883C5.8583 6.80784 5.89726 6.41067 5.82091 6.02753C5.74456 5.6444 5.55632 5.2925 5.28 5.01633C5.00368 4.74017 4.65167 4.55213 4.26849 4.476C3.88532 4.39986 3.48817 4.43905 3.12726 4.5886C2.76635 4.73816 2.45788 4.99136 2.24086 5.31621C2.02384 5.64105 1.90801 6.02295 1.90801 6.41362C1.90816 6.93781 2.11646 7.44048 2.48711 7.81114C2.85777 8.1818 3.36044 8.3901 3.88463 8.39025V8.38912ZM5.31057 12.114C4.41507 11.6162 4.33294 10.1317 5.05407 8.53987C4.69765 8.74228 4.29508 8.84941 3.88519 8.85093C3.34744 8.85093 2.85469 8.67093 2.45082 8.37506C2.10488 8.66306 1.76007 9.07593 1.47657 9.58612C0.820132 10.7696 0.748132 11.9835 1.31513 12.2974C1.56826 12.4425 1.83544 12.3339 2.11051 12.069C2.06046 12.3547 2.03505 12.6441 2.03457 12.9341C2.03457 14.2909 2.56051 15.3866 3.20907 15.3866C3.59944 15.3866 3.79407 14.9872 3.88632 14.3769C3.97913 14.9844 4.17319 15.3872 4.56132 15.3872C5.20651 15.3872 5.73695 14.2903 5.73695 12.9347C5.73695 12.6911 5.71444 12.4611 5.68238 12.2406C5.55214 12.2203 5.42648 12.1772 5.31113 12.1134L5.31057 12.114Z" fill="#A6ABC8"/>
</svg>
