<svg width="18" height="18" viewBox="0 0 18 18" fill="none" xmlns="http://www.w3.org/2000/svg">
<path d="M1.125 3.1875C1.125 2.463 1.713 1.875 2.4375 1.875H15.5625C16.287 1.875 16.875 2.463 16.875 3.1875V12.5625C16.875 12.9106 16.7367 13.2444 16.4906 13.4906C16.2444 13.7367 15.9106 13.875 15.5625 13.875H8.373C8.34836 13.875 8.32395 13.8798 8.30118 13.8892C8.2784 13.8986 8.2577 13.9123 8.24025 13.9298L5.61525 16.5548C5.46229 16.7071 5.26764 16.8108 5.05584 16.8527C4.84404 16.8947 4.62456 16.873 4.42509 16.7903C4.22561 16.7077 4.05505 16.5679 3.93491 16.3885C3.81477 16.2091 3.75043 15.9982 3.75 15.7822V13.875H2.4375C2.0894 13.875 1.75556 13.7367 1.50942 13.4906C1.26328 13.2444 1.125 12.9106 1.125 12.5625V3.1875ZM2.4375 3C2.38777 3 2.34008 3.01975 2.30492 3.05492C2.26975 3.09008 2.25 3.13777 2.25 3.1875V12.5625C2.25 12.666 2.334 12.75 2.4375 12.75H4.3125C4.46168 12.75 4.60476 12.8093 4.71025 12.9148C4.81574 13.0202 4.875 13.1633 4.875 13.3125V15.705L7.44525 13.1348C7.69126 12.8886 8.02497 12.7502 8.373 12.75H15.5625C15.6122 12.75 15.6599 12.7302 15.6951 12.6951C15.7302 12.6599 15.75 12.6122 15.75 12.5625V3.1875C15.75 3.13777 15.7302 3.09008 15.6951 3.05492C15.6599 3.01975 15.6122 3 15.5625 3H2.4375ZM9 4.5C9.14918 4.5 9.29226 4.55926 9.39775 4.66475C9.50324 4.77024 9.5625 4.91332 9.5625 5.0625V8.0625C9.5625 8.21168 9.50324 8.35476 9.39775 8.46025C9.29226 8.56574 9.14918 8.625 9 8.625C8.85082 8.625 8.70774 8.56574 8.60225 8.46025C8.49676 8.35476 8.4375 8.21168 8.4375 8.0625V5.0625C8.4375 4.91332 8.49676 4.77024 8.60225 4.66475C8.70774 4.55926 8.85082 4.5 9 4.5ZM9 11.25C8.80109 11.25 8.61032 11.171 8.46967 11.0303C8.32902 10.8897 8.25 10.6989 8.25 10.5C8.25 10.3011 8.32902 10.1103 8.46967 9.96967C8.61032 9.82902 8.80109 9.75 9 9.75C9.19891 9.75 9.38968 9.82902 9.53033 9.96967C9.67098 10.1103 9.75 10.3011 9.75 10.5C9.75 10.6989 9.67098 10.8897 9.53033 11.0303C9.38968 11.171 9.19891 11.25 9 11.25Z" fill="#A6ABC8"/>
</svg>
