<svg width="18" height="18" viewBox="0 0 18 18" fill="none" xmlns="http://www.w3.org/2000/svg">
<path d="M9.53796 1.50009C10.1051 1.50015 10.6187 1.81541 10.9022 2.28036C11.0401 2.50532 11.1322 2.78289 11.1093 3.07529C11.094 3.30023 11.1624 3.5255 11.285 3.73544C11.6759 4.37276 12.5423 4.61276 13.2167 4.25302C13.9755 3.81803 14.9341 4.07987 15.371 4.82236L15.8837 5.70712C16.3282 6.44956 16.0836 7.40262 15.3173 7.83017C14.6658 8.21265 14.4352 9.06018 14.826 9.70517C14.9487 9.90762 15.0871 10.0797 15.3016 10.1847C15.5699 10.3272 15.7771 10.5524 15.9227 10.7774C16.2063 11.2424 16.183 11.813 15.9071 12.3155L15.371 13.2149C15.0874 13.6949 14.5577 13.9952 14.0135 13.9952C13.7454 13.9951 13.4462 13.9195 13.201 13.7696C13.0019 13.6424 12.7722 13.5978 12.5272 13.5977C11.7684 13.5977 11.1322 14.2205 11.1093 14.963C11.109 15.8253 10.4036 16.5001 9.52234 16.5001H8.48035C7.59138 16.5001 6.88583 15.8253 6.88562 14.963C6.87029 14.2205 6.23427 13.5977 5.47546 13.5977C5.22255 13.5978 4.99226 13.6421 4.80066 13.7696C4.5554 13.9196 4.24874 13.9952 3.98816 13.9952C3.43645 13.9951 2.90742 13.6948 2.6239 13.2149L2.09558 12.3155C1.81199 11.828 1.79636 11.2424 2.07996 10.7774C2.2026 10.5525 2.43267 10.3271 2.69324 10.1847C2.90766 10.0797 3.04544 9.9075 3.17566 9.70517C3.55889 9.06017 3.32911 8.21267 2.67761 7.83017C1.91896 7.40262 1.67436 6.44956 2.11121 5.70712L2.6239 4.82236C3.06846 4.07987 4.01955 3.81802 4.78601 4.25302C5.45274 4.61267 6.31899 4.37272 6.70984 3.73544C6.83244 3.5255 6.9009 3.30023 6.88562 3.07529C6.87029 2.78286 6.95491 2.50533 7.10046 2.28036C7.38403 1.81541 7.89745 1.51515 8.45691 1.50009H9.53796ZM9.00867 6.88486C7.8054 6.88496 6.83191 7.83047 6.83191 9.0079C6.83208 10.1852 7.8055 11.1221 9.00867 11.1222C10.2119 11.1222 11.1628 10.1853 11.163 9.0079C11.163 7.8304 10.212 6.88486 9.00867 6.88486Z" fill="#A6ABC8"/>
</svg>
