<svg width="140" height="43" viewBox="0 0 140 43" fill="none" xmlns="http://www.w3.org/2000/svg">
<path fill-rule="evenodd" clip-rule="evenodd" d="M16.2752 8.76401C16.2752 7.83427 16.6445 6.94261 17.302 6.28519C17.9594 5.62776 18.851 5.25842 19.7808 5.25842H23.2864C24.2161 5.25842 25.1078 5.62776 25.7652 6.28519C26.4226 6.94261 26.792 7.83427 26.792 8.76401V15.7752H33.8031C34.7329 15.7752 35.6245 16.1445 36.282 16.8019C36.9394 17.4594 37.3087 18.351 37.3087 19.2808V22.7864C37.3087 23.7161 36.9394 24.6078 36.282 25.2652C35.6245 25.9226 34.7329 26.2919 33.8031 26.2919H26.792V33.3031C26.792 34.2329 26.4226 35.1245 25.7652 35.7819C25.1078 36.4394 24.2161 36.8087 23.2864 36.8087H19.7808C18.851 36.8087 17.9594 36.4394 17.302 35.7819C16.6445 35.1245 16.2752 34.2329 16.2752 33.3031V26.2919H9.26401C8.33427 26.2919 7.44261 25.9226 6.78519 25.2652C6.12776 24.6078 5.75842 23.7161 5.75842 22.7864V19.2808C5.75842 18.351 6.12776 17.4594 6.78519 16.8019C7.44261 16.1445 8.33427 15.7752 9.26401 15.7752H16.2752V8.76401Z" fill="#5A67BA"/>
<path d="M51.084 29.235C49.852 29.235 48.748 29.035 47.772 28.635C46.796 28.235 46.012 27.643 45.42 26.859C44.844 26.075 44.54 25.131 44.508 24.027H48.876C48.94 24.651 49.156 25.131 49.524 25.467C49.892 25.787 50.372 25.947 50.964 25.947C51.572 25.947 52.052 25.811 52.404 25.539C52.756 25.251 52.932 24.859 52.932 24.363C52.932 23.947 52.788 23.603 52.5 23.331C52.228 23.059 51.884 22.835 51.468 22.659C51.068 22.483 50.492 22.283 49.74 22.059C48.652 21.723 47.764 21.387 47.076 21.051C46.388 20.715 45.796 20.219 45.3 19.563C44.804 18.907 44.556 18.051 44.556 16.995C44.556 15.427 45.124 14.203 46.26 13.323C47.396 12.427 48.876 11.979 50.7 11.979C52.556 11.979 54.052 12.427 55.188 13.323C56.324 14.203 56.932 15.435 57.012 17.019H52.572C52.54 16.475 52.34 16.051 51.972 15.747C51.604 15.427 51.132 15.267 50.556 15.267C50.06 15.267 49.66 15.403 49.356 15.675C49.052 15.931 48.9 16.307 48.9 16.803C48.9 17.347 49.156 17.771 49.668 18.075C50.18 18.379 50.98 18.707 52.068 19.059C53.156 19.427 54.036 19.779 54.708 20.115C55.396 20.451 55.988 20.939 56.484 21.579C56.98 22.219 57.228 23.043 57.228 24.051C57.228 25.011 56.98 25.883 56.484 26.667C56.004 27.451 55.3 28.075 54.372 28.539C53.444 29.003 52.348 29.235 51.084 29.235ZM59.4376 22.347C59.4376 20.971 59.6936 19.763 60.2056 18.723C60.7336 17.683 61.4456 16.883 62.3416 16.323C63.2376 15.763 64.2376 15.483 65.3416 15.483C66.2856 15.483 67.1096 15.675 67.8136 16.059C68.5336 16.443 69.0856 16.947 69.4696 17.571V15.675H73.5736V29.067H69.4696V27.171C69.0696 27.795 68.5096 28.299 67.7896 28.683C67.0856 29.067 66.2616 29.259 65.3176 29.259C64.2296 29.259 63.2376 28.979 62.3416 28.419C61.4456 27.843 60.7336 27.035 60.2056 25.995C59.6936 24.939 59.4376 23.723 59.4376 22.347ZM69.4696 22.371C69.4696 21.347 69.1816 20.539 68.6056 19.947C68.0456 19.355 67.3576 19.059 66.5416 19.059C65.7256 19.059 65.0296 19.355 64.4536 19.947C63.8936 20.523 63.6136 21.323 63.6136 22.347C63.6136 23.371 63.8936 24.187 64.4536 24.795C65.0296 25.387 65.7256 25.683 66.5416 25.683C67.3576 25.683 68.0456 25.387 68.6056 24.795C69.1816 24.203 69.4696 23.395 69.4696 22.371ZM90.2667 15.675V29.067H86.1627V27.243C85.7467 27.835 85.1787 28.315 84.4587 28.683C83.7547 29.035 82.9707 29.211 82.1067 29.211C81.0827 29.211 80.1787 28.987 79.3947 28.539C78.6107 28.075 78.0027 27.411 77.5707 26.547C77.1387 25.683 76.9227 24.667 76.9227 23.499V15.675H81.0027V22.947C81.0027 23.843 81.2347 24.539 81.6987 25.035C82.1627 25.531 82.7867 25.779 83.5707 25.779C84.3707 25.779 85.0027 25.531 85.4667 25.035C85.9307 24.539 86.1627 23.843 86.1627 22.947V15.675H90.2667ZM86.4507 12.339L80.6667 14.763V11.931L86.4507 9.14702V12.339ZM92.8986 22.347C92.8986 20.971 93.1546 19.763 93.6666 18.723C94.1946 17.683 94.9066 16.883 95.8026 16.323C96.6986 15.763 97.6986 15.483 98.8026 15.483C99.6826 15.483 100.483 15.667 101.203 16.035C101.939 16.403 102.515 16.899 102.931 17.523V11.307H107.035V29.067H102.931V27.147C102.547 27.787 101.995 28.299 101.275 28.683C100.571 29.067 99.7466 29.259 98.8026 29.259C97.6986 29.259 96.6986 28.979 95.8026 28.419C94.9066 27.843 94.1946 27.035 93.6666 25.995C93.1546 24.939 92.8986 23.723 92.8986 22.347ZM102.931 22.371C102.931 21.347 102.643 20.539 102.067 19.947C101.507 19.355 100.819 19.059 100.003 19.059C99.1866 19.059 98.4906 19.355 97.9146 19.947C97.3546 20.523 97.0746 21.323 97.0746 22.347C97.0746 23.371 97.3546 24.187 97.9146 24.795C98.4906 25.387 99.1866 25.683 100.003 25.683C100.819 25.683 101.507 25.387 102.067 24.795C102.643 24.203 102.931 23.395 102.931 22.371ZM123.128 22.155C123.128 22.539 123.104 22.939 123.056 23.355H113.768C113.832 24.187 114.096 24.827 114.56 25.275C115.04 25.707 115.624 25.923 116.312 25.923C117.336 25.923 118.048 25.491 118.448 24.627H122.816C122.592 25.507 122.184 26.299 121.592 27.003C121.016 27.707 120.288 28.259 119.408 28.659C118.528 29.059 117.544 29.259 116.456 29.259C115.144 29.259 113.976 28.979 112.952 28.419C111.928 27.859 111.128 27.059 110.552 26.019C109.976 24.979 109.688 23.763 109.688 22.371C109.688 20.979 109.968 19.763 110.528 18.723C111.104 17.683 111.904 16.883 112.928 16.323C113.952 15.763 115.128 15.483 116.456 15.483C117.752 15.483 118.904 15.755 119.912 16.299C120.92 16.843 121.704 17.619 122.264 18.627C122.84 19.635 123.128 20.811 123.128 22.155ZM118.928 21.075C118.928 20.371 118.688 19.811 118.208 19.395C117.728 18.979 117.128 18.771 116.408 18.771C115.72 18.771 115.136 18.971 114.656 19.371C114.192 19.771 113.904 20.339 113.792 21.075H118.928Z" fill="#5A67BA"/>
</svg>
